<svg id="Layer_1" data-name="Layer 1" xmlns="http://www.w3.org/2000/svg" viewBox="0 0 49.41 110.01"><title>ominocinese</title><path d="M66.59,129c-9.62-5.55-9.57-14.59.11-20.17s25.32-5.62,34.94-.06,9.57,14.59-.11,20.17S76.21,134.56,66.59,129Z" transform="translate(-59.41 -23.14)" fill="#c6c6c6" opacity="0.5"/><path d="M74.1,44.81h14a12,12,0,0,1,12,12V69.92L84.14,83h-10a8,8,0,0,1-8-8V52.8A8,8,0,0,1,74.1,44.81Z" transform="translate(-59.41 -23.14)" fill="#73ba64"/><path d="M82.15,114.2l-6.71,5.38a5.82,5.82,0,0,1-6,.29h0c-1.54-1-1.34-2.88.43-4.08l3.24-2.17" transform="translate(-59.41 -23.14)" fill="#1e8cc8"/><rect x="85.53" y="89.17" width="9.35" height="22.43" transform="translate(121.01 177.64) rotate(-180)" fill="#787364"/><rect x="73.06" y="87.91" width="9.35" height="18.81" transform="translate(96.06 171.5) rotate(-180)" fill="#787364"/><path d="M74.46,114.77a12,12,0,0,0,6.62,0c1.83-.62,1.84-1.63,0-2.25a12,12,0,0,0-6.62,0C72.65,113.14,72.64,114.15,74.46,114.77Z" transform="translate(-59.41 -23.14)" fill="#ff0"/><polyline points="13.64 90.48 13.64 83.52 23.05 83.52 23.05 90.53" fill="#ff0"/><polygon points="11.03 86.66 37.92 86.68 34.53 51.81 13.27 53.36 11.03 86.66" fill="#14bae6"/><polyline points="26.11 95.4 26.11 88.29 35.52 88.29 35.52 95.47" fill="#ff0"/><path d="M74.35,113.05a34.46,34.46,0,0,0,19,0c5.27-1.79,5.29-4.68.06-6.46a34.46,34.46,0,0,0-19,0C69.14,108.38,69.12,111.27,74.35,113.05Z" transform="translate(-59.41 -23.14)" fill="#14bae6"/><path d="M72.71,76.43c0,1,1,2,3.26,2.73a28.72,28.72,0,0,0,15.85,0c2.19-.75,3.3-1.72,3.31-2.69v-8H72.75v7.3" transform="translate(-59.41 -23.14)" fill="#787364"/><path d="M72.71,76.43c0,1,1,2,3.26,2.73a28.72,28.72,0,0,0,15.85,0c2.19-.75,3.3-1.72,3.31-2.69v-8H72.75v7.3" transform="translate(-59.41 -23.14)" fill="#73ba64"/><path d="M76,71.11a28.72,28.72,0,0,0,15.85,0c4.39-1.49,4.41-3.9,0-5.38a28.72,28.72,0,0,0-15.85,0C71.62,67.22,71.6,69.63,76,71.11Z" transform="translate(-59.41 -23.14)" fill="#73ba64"/><path d="M66.15,60.06h0A6.86,6.86,0,0,1,73,66.92V86a0,0,0,0,1,0,0H66.15a0,0,0,0,1,0,0V60.06A0,0,0,0,1,66.15,60.06Z" transform="translate(79.75 122.91) rotate(-180)" fill="#ff0"/><path d="M67.2,60.9a9.23,9.23,0,0,0,5.09,0c1.41-.48,1.42-1.25,0-1.73a9.23,9.23,0,0,0-5.09,0C65.8,59.65,65.79,60.42,67.2,60.9Z" transform="translate(-59.41 -23.14)" fill="#73ba64"/><path d="M94.62,119.13l-6.71,5.38a5.82,5.82,0,0,1-6,.29h0c-1.54-1-1.34-2.88.43-4.08l3.24-2.17" transform="translate(-59.41 -23.14)" fill="#1e8cc8"/><path d="M86.93,119.69a12,12,0,0,0,6.62,0c1.83-.62,1.84-1.63,0-2.25a12,12,0,0,0-6.62,0C85.12,118.07,85.11,119.08,86.93,119.69Z" transform="translate(-59.41 -23.14)" fill="#ff0"/><path d="M78.22,62.84c0-2.45-1.69-4.79-3.78-5.23s-3.78,1.21-3.78,3.66,1.69,4.79,3.78,5.23S78.22,65.29,78.22,62.84Z" transform="translate(-59.41 -23.14)" fill="#73ba64"/><path d="M75.65,44.64l4,14a1,1,0,0,0,1.82.18l7.29-14.47" transform="translate(-59.41 -23.14)" fill="#787364"/><path d="M75.65,44.64l4,14a1,1,0,0,0,1.82.18l7.29-14.47" transform="translate(-59.41 -23.14)" fill="#ff0"/><circle cx="33.65" cy="17.6" r="2.36" fill="#009767"/><circle cx="12.74" cy="16.09" r="2.36" fill="#009767"/><path d="M93.3,33.72A10.61,10.61,0,0,0,82.72,23.14h0A10.61,10.61,0,0,0,72.15,33.72v7.84L93.3,43.07Z" transform="translate(-59.41 -23.14)" fill="#009767"/><rect x="73.23" y="23.71" width="17.76" height="24.21" rx="8.88" ry="8.88" transform="translate(104.8 48.48) rotate(180)" fill="#ff0"/><path d="M91.88,33a9.8,9.8,0,0,0-9.77-9.77h0A9.8,9.8,0,0,0,72.35,33" transform="translate(-59.41 -23.14)" fill="#009767"/><path d="M75.2,35A29.22,29.22,0,0,0,89,35c3.82-1.1,3.84-2.88,0-4a29.22,29.22,0,0,0-13.78,0C71.42,32.15,71.41,33.93,75.2,35Z" transform="translate(-59.41 -23.14)" fill="#009767"/><path d="M80.14,71l7.54,1.33a.93.93,0,0,0,1.14-.94V59.59a1.43,1.43,0,0,0-1.14-1.34l-7.54-1.33a.93.93,0,0,0-1.14.94V69.63A1.43,1.43,0,0,0,80.14,71Z" transform="translate(-59.41 -23.14)" fill="#009767"/><path d="M96.65,78.2A3.43,3.43,0,0,1,95,77.79L85.3,72.55a3.42,3.42,0,0,1-1.39-4.63h0a3.42,3.42,0,0,1,4.63-1.39l4.69,2.53V65.3h6.84v9.48a3.42,3.42,0,0,1-3.42,3.42Z" transform="translate(-59.41 -23.14)" fill="#ff0"/><path d="M93.91,66A9.23,9.23,0,0,0,99,66c1.41-.48,1.42-1.25,0-1.73a9.23,9.23,0,0,0-5.09,0C92.52,64.79,92.51,65.56,93.91,66Z" transform="translate(-59.41 -23.14)" fill="#73ba64"/></svg>